<svg width="123" height="20" viewBox="0 0 123 20" fill="none" xmlns="http://www.w3.org/2000/svg">
<path d="M9.85584 7.02524C9.18572 6.56737 8.39032 6.33081 7.58026 6.34843C7.1949 6.34989 6.81015 6.3793 6.429 6.43642C6.0655 6.4873 5.71154 6.59222 5.37873 6.74775C5.08781 6.88351 4.83118 7.08365 4.62806 7.33319C4.42031 7.60614 4.31537 7.9442 4.33183 8.28748C4.32539 8.62179 4.44574 8.94604 4.66845 9.1944C4.9315 9.4798 5.24117 9.71786 5.58407 9.89828C6.00128 10.1321 6.43567 10.3335 6.88345 10.5006L8.34776 11.0861C8.85944 11.3117 9.35652 11.5463 9.83901 11.7899C10.2979 12.0305 10.7291 12.321 11.1249 12.6563C11.4967 12.9758 11.8071 13.3612 12.0405 13.7933C12.2787 14.2715 12.3944 14.8019 12.3772 15.3364C12.3999 16.0943 12.2047 16.8428 11.815 17.492C11.4502 18.0804 10.9562 18.577 10.3709 18.9438C9.75571 19.3248 9.08076 19.5983 8.3747 19.7526C7.64319 19.9171 6.89584 20 6.14624 19.9996C5.32288 20.0066 4.50119 19.9238 3.69561 19.7526C3.0003 19.6082 2.34165 19.3226 1.76001 18.9133C1.20627 18.509 0.763788 17.9699 0.474105 17.3465C0.137265 16.5754 -0.0237563 15.7383 0.00282988 14.8965H2.48376C2.43053 15.3749 2.51833 15.8586 2.73623 16.2873C2.9424 16.6571 3.24349 16.9644 3.60808 17.1773C3.99841 17.4147 4.42844 17.5787 4.87716 17.6612C5.37812 17.7618 5.88785 17.8117 6.39871 17.8101C6.8144 17.8095 7.22912 17.7698 7.63749 17.6917C8.0309 17.621 8.41049 17.4873 8.76181 17.2958C9.08256 17.1211 9.35989 16.8759 9.57308 16.5783C9.7832 16.2614 9.88916 15.8862 9.87604 15.5056C9.88809 15.1561 9.76779 14.8151 9.53942 14.5513C9.27388 14.2641 8.96486 14.0208 8.6238 13.8305C8.21076 13.5986 7.7809 13.3984 7.33789 13.2315C6.85764 13.0443 6.37065 12.8435 5.87694 12.6292C5.36527 12.4329 4.86706 12.2197 4.38569 11.9828C3.92015 11.7588 3.48375 11.478 3.08632 11.147C2.71087 10.8337 2.39985 10.4498 2.1707 10.0167C1.93791 9.55353 1.8223 9.03979 1.83407 8.52098C1.8218 7.86171 1.9907 7.21183 2.32218 6.64284C2.64543 6.10119 3.08472 5.63878 3.60808 5.28923C4.16493 4.91559 4.7774 4.63344 5.42249 4.45338C6.09987 4.25738 6.80133 4.15827 7.5062 4.15897C8.21262 4.1594 8.91652 4.24345 9.60338 4.40939C10.2646 4.56351 10.8906 4.84257 11.4481 5.23171C11.9968 5.6194 12.4466 6.13189 12.7609 6.72745C13.1058 7.41936 13.2713 8.18756 13.2423 8.9609H10.7412C10.7782 8.58826 10.7157 8.21241 10.5601 7.87215C10.4045 7.53189 10.1614 7.23953 9.85584 7.02524Z" fill="#27599A"/>
<path d="M19.4903 4.50075L18.9282 6.76128L18.9854 6.81881C19.6243 6.00739 20.4275 5.34181 21.3418 4.86623C22.2588 4.38821 23.2779 4.14197 24.3108 4.14881C25.178 4.12499 26.0353 4.33783 26.7917 4.76471C27.1513 5.00168 27.4571 5.31225 27.6891 5.67611C27.9211 6.03998 28.0742 6.44896 28.1382 6.87634C28.7399 6.04844 29.5231 5.37103 30.4273 4.89668C31.3303 4.40694 32.34 4.14998 33.366 4.14881C33.8935 4.14883 34.419 4.21245 34.9313 4.33832C35.4185 4.45641 35.8827 4.65542 36.3048 4.92714C36.706 5.18872 37.0358 5.54702 37.2642 5.96942C37.5078 6.4602 37.6237 7.00511 37.6008 7.55314C37.5956 8.06508 37.5472 8.57564 37.456 9.07934C37.355 9.64785 37.2574 10.1453 37.1598 10.5751L35.241 19.6713H32.7668L34.8943 10.0472C34.9515 9.81029 35.0054 9.5328 35.0559 9.21132C35.0992 8.94377 35.1239 8.67353 35.1299 8.40253C35.1336 8.12327 35.075 7.84672 34.9585 7.59317C34.842 7.33963 34.6706 7.11551 34.4567 6.93725C33.9885 6.53189 33.3841 6.3213 32.7668 6.34843C32.3998 6.35145 32.0355 6.41079 31.6863 6.5244C31.3234 6.64228 30.9728 6.79528 30.6394 6.98124C29.981 7.35029 29.3993 7.84315 28.9259 8.43299C28.513 8.87971 28.2007 9.41065 28.0103 9.98964C27.8089 10.5956 27.6415 11.2125 27.5088 11.8373L25.8256 19.6713H23.3413L25.1591 11.015C25.2971 10.4296 25.4082 9.88135 25.4957 9.37037C25.5626 9.03539 25.6065 8.69619 25.627 8.35516C25.6422 8.08574 25.6016 7.81609 25.5077 7.56328C25.4138 7.31047 25.2688 7.08001 25.0817 6.88649C24.6473 6.50591 24.0814 6.31261 23.5063 6.34843C22.782 6.35813 22.0733 6.56135 21.4529 6.93725C20.8235 7.29524 20.2553 7.75223 19.7697 8.29086C19.2961 8.71553 18.9234 9.24173 18.6791 9.83059C18.4535 10.4464 18.2757 11.0789 18.1472 11.7223L16.4338 19.6747H13.936L17.1542 4.50413L19.4903 4.50075Z" fill="#27599A"/>
<path d="M41.1418 6.89326C41.5354 6.28806 42.0418 5.76519 42.6331 5.35353C43.247 4.93154 43.931 4.62326 44.6528 4.44322C45.4147 4.24508 46.1987 4.14614 46.9856 4.14881C47.6985 4.14531 48.4104 4.20419 49.1131 4.32478C49.7343 4.42579 50.3333 4.63416 50.8838 4.94068C51.3855 5.22611 51.8071 5.63478 52.1091 6.12847C52.4343 6.70494 52.5929 7.3613 52.5669 8.02352C52.5625 8.4916 52.5084 8.95787 52.4053 9.41436C52.2976 9.91519 52.1932 10.3687 52.0956 10.768L51.1194 14.9032C51.0622 15.218 50.978 15.5801 50.8703 15.9591C50.7641 16.3218 50.7086 16.6977 50.7053 17.0758C50.6772 17.3386 50.7521 17.602 50.9141 17.8101C50.9846 17.8782 51.068 17.9312 51.1594 17.9661C51.2508 18.001 51.3482 18.017 51.4459 18.0132C51.5812 18.01 51.7151 17.9861 51.8431 17.9421L52.2437 17.8101L51.86 19.6578C51.6144 19.7499 51.3624 19.8234 51.1059 19.8778C50.8488 19.9395 50.5859 19.9735 50.3216 19.9793C50.0365 19.9999 49.7502 19.9609 49.4808 19.8648C49.2114 19.7687 48.9647 19.6176 48.7563 19.4209C48.5735 19.2113 48.4413 18.962 48.3701 18.6926C48.2989 18.4232 48.2905 18.1409 48.3456 17.8677L48.285 17.8101C47.7675 18.503 47.0875 19.0563 46.3057 19.4209C45.3144 19.832 44.2464 20.0225 43.175 19.9793C42.5633 19.9852 41.9534 19.9113 41.3606 19.7593C40.8242 19.6274 40.3238 19.3765 39.8963 19.025C39.4693 18.6679 39.1306 18.2162 38.9066 17.7052C38.6446 17.0794 38.5195 16.4043 38.5397 15.7256C38.5397 14.6122 38.7787 13.7391 39.2635 13.1131C39.7456 12.4868 40.3813 11.9971 41.1082 11.6918C41.8999 11.355 42.7352 11.1328 43.5891 11.0319C44.4868 10.9146 45.3631 10.8165 46.2181 10.7375C46.8914 10.68 47.4636 10.6157 47.945 10.548C48.3583 10.4978 48.7614 10.3836 49.14 10.2096C49.4405 10.0678 49.6856 9.82977 49.8369 9.5328C49.9988 9.15282 50.0736 8.74107 50.0557 8.32809C50.0716 7.97179 49.9685 7.62036 49.7628 7.3298C49.5646 7.07596 49.3113 6.87108 49.0222 6.73083C48.7098 6.57742 48.3762 6.47246 48.0325 6.4195C47.2191 6.28435 46.3877 6.30502 45.5819 6.48041C45.1394 6.57006 44.715 6.73363 44.3263 6.96432C43.9586 7.18237 43.6372 7.47097 43.3804 7.81371C43.1072 8.18629 42.9303 8.62114 42.8653 9.07934H40.3575C40.4527 8.30078 40.7208 7.55368 41.1418 6.89326ZM41.8555 17.2924C42.4264 17.6504 43.088 17.8349 43.7608 17.8237C45.7469 17.8237 47.1741 17.1581 48.0426 15.8271C48.4479 15.2767 48.7345 14.6474 48.8842 13.9794C49.0323 13.3026 49.195 12.6179 49.3723 11.9253H49.3117C48.9065 12.2011 48.4475 12.3869 47.9652 12.4701C47.4232 12.575 46.8476 12.6596 46.2383 12.7172C45.629 12.7747 45.0096 12.8491 44.3903 12.9371C43.8144 13.0118 43.2494 13.155 42.7071 13.3635C42.2503 13.5427 41.8428 13.8293 41.5188 14.1994C41.179 14.6268 41.0012 15.1617 41.0173 15.7086C41.0007 16.0243 41.0699 16.3385 41.2176 16.6175C41.3653 16.8966 41.5858 17.1299 41.8555 17.2924Z" fill="#27599A"/>
<path d="M59.2018 4.50075L58.4646 7.75618H58.5218C59.09 6.74835 59.8603 5.87023 60.7839 5.17756C61.74 4.48359 62.8974 4.12668 64.0761 4.16235C64.2237 4.163 64.3711 4.15283 64.5171 4.13189C64.6658 4.11396 64.8165 4.12429 64.9615 4.16235L64.3724 6.83235C64.2448 6.80782 64.115 6.79761 63.9852 6.80189H63.6318C63.3187 6.80189 63.0629 6.80189 62.8643 6.81881C62.6148 6.83836 62.3679 6.88257 62.1271 6.95079C61.4546 7.1184 60.8256 7.42879 60.2824 7.86109C59.7343 8.29151 59.2601 8.80937 58.8786 9.39405C58.5254 9.92064 58.2562 10.4995 58.0808 11.1098C57.8834 11.7663 57.7251 12.3776 57.6062 12.9439L56.1621 19.6713H53.6812L56.8387 4.50075H59.2018Z" fill="#27599A"/>
<path d="M73.8147 4.50075L73.34 6.68684H70.3104L68.422 15.6105C68.4018 15.7842 68.3816 15.95 68.3614 16.108C68.3406 16.2729 68.3305 16.4391 68.3311 16.6054C68.3136 16.7728 68.3478 16.9416 68.4291 17.0887C68.5104 17.2359 68.6349 17.3542 68.7855 17.4277C69.1136 17.5792 69.4714 17.6544 69.8324 17.6477C70.08 17.6474 70.3269 17.6225 70.5696 17.5732C70.8099 17.5244 71.0471 17.4611 71.2799 17.3837L70.8356 19.6713C70.5427 19.712 70.2465 19.7458 69.9502 19.7729C69.6561 19.8027 69.3606 19.8174 69.0649 19.8169C68.6197 19.819 68.175 19.7851 67.7352 19.7153C67.3549 19.6594 66.989 19.5295 66.658 19.3329C66.3534 19.1491 66.099 18.8921 65.9175 18.5851C65.7183 18.2173 65.6217 17.8022 65.6381 17.3837C65.6368 17.1765 65.6515 16.9695 65.6818 16.7645C65.7121 16.5716 65.7458 16.355 65.7862 16.1215L67.7756 6.68684H65.2173L65.6919 4.48722H68.2604L69.2063 0H71.7141L70.7716 4.48722L73.8147 4.50075Z" fill="#27599A"/>
<path d="M81.8397 10.3416L81.3684 12.6867H72.8013L73.2759 10.3416H81.8397Z" fill="#27599A"/>
<path d="M88.6463 4.50075L88.0875 6.76128L88.1447 6.81881C88.7836 6.00739 89.5869 5.34181 90.5011 4.86623C91.418 4.38782 92.4371 4.14156 93.4701 4.14881C94.3363 4.12441 95.1927 4.33731 95.9477 4.7647C96.3076 5.00136 96.6135 5.31184 96.8456 5.67576C97.0777 6.03969 97.2305 6.44883 97.2942 6.87634C97.8958 6.04844 98.6791 5.37103 99.5833 4.89668C100.486 4.40694 101.496 4.14998 102.522 4.14881C103.049 4.14883 103.575 4.21245 104.087 4.33832C104.58 4.45462 105.05 4.65368 105.478 4.92714C105.879 5.18872 106.209 5.54702 106.437 5.96942C106.686 6.45866 106.808 7.00365 106.79 7.55314C106.785 8.06508 106.737 8.57564 106.646 9.07934C106.545 9.64785 106.447 10.1453 106.349 10.5751L104.431 19.6713H101.919L104.047 10.0472C104.104 9.81029 104.158 9.5328 104.208 9.21131C104.252 8.94377 104.277 8.67353 104.283 8.40253C104.286 8.12327 104.228 7.84672 104.111 7.59317C103.995 7.33962 103.823 7.1155 103.609 6.93725C103.143 6.53382 102.541 6.32338 101.926 6.34843C101.56 6.35148 101.197 6.41082 100.849 6.5244C100.486 6.64228 100.136 6.79528 99.8021 6.98124C99.1437 7.35029 98.5619 7.84315 98.0886 8.43299C97.6757 8.87971 97.3634 9.41065 97.173 9.98964C96.9716 10.5956 96.8042 11.2125 96.6715 11.8373L94.9883 19.6713H92.4771L94.3084 11.015C94.4464 10.4296 94.5575 9.88135 94.645 9.37036C94.7119 9.03539 94.7557 8.69619 94.7763 8.35516C94.7914 8.08574 94.7508 7.81609 94.6569 7.56328C94.5631 7.31047 94.418 7.08001 94.2309 6.88649C93.7974 6.50676 93.2328 6.31351 92.6589 6.34843C91.9346 6.35813 91.2259 6.56135 90.6055 6.93725C89.9702 7.29373 89.3962 7.7508 88.9055 8.29086C88.4319 8.71553 88.0591 9.24173 87.8149 9.83059C87.5952 10.4458 87.423 11.0771 87.2998 11.7189L85.5864 19.6713H83.1055L86.3236 4.50075H88.6463Z" fill="#50B848"/>
<path d="M110.779 14.1554C110.773 14.6976 110.888 15.2343 111.116 15.7256C111.321 16.1692 111.624 16.5602 112.001 16.8694C112.381 17.175 112.811 17.413 113.27 17.5732C113.745 17.7404 114.245 17.825 114.748 17.8237C115.727 17.8635 116.695 17.6014 117.522 17.0724C118.276 16.5434 118.845 15.7892 119.148 14.9168H121.636C121.458 15.7078 121.138 16.4591 120.69 17.1333C120.27 17.7544 119.74 18.2915 119.124 18.717C118.501 19.1431 117.813 19.4653 117.088 19.6713C116.321 19.8872 115.528 19.9954 114.731 19.9928C113.654 20.0282 112.581 19.8333 111.584 19.4209C110.818 19.0908 110.136 18.5897 109.591 17.9556C109.111 17.3818 108.759 16.7115 108.558 15.9895C108.367 15.3157 108.267 14.6191 108.262 13.9185C108.246 12.5674 108.461 11.2236 108.898 9.94565C109.278 8.81787 109.858 7.76876 110.611 6.84927C111.298 6.01205 112.154 5.33143 113.122 4.85269C114.053 4.38804 115.079 4.14709 116.118 4.14881C118.363 4.14881 120.002 4.73538 121.036 5.90851C122.071 7.08164 122.588 8.7353 122.588 10.8695C122.59 11.2425 122.559 11.615 122.497 11.9828C122.44 12.3212 122.39 12.619 122.349 12.8356H110.864C110.805 13.273 110.777 13.714 110.779 14.1554ZM119.979 9.07934C119.881 8.58335 119.679 8.11397 119.387 7.70204C119.099 7.28801 118.715 6.95016 118.269 6.71729C117.721 6.45273 117.117 6.32614 116.509 6.34843C115.84 6.3392 115.174 6.45391 114.546 6.68683C113.987 6.89765 113.471 7.21089 113.025 7.61067C112.591 8.00074 112.222 8.45764 111.931 8.96428C111.635 9.4889 111.397 10.0451 111.224 10.6225H120.084C120.121 10.0978 120.086 9.57057 119.979 9.05565V9.07934Z" fill="#50B848"/>
</svg>
